<svg t="1641659863596" class="icon" viewBox="0 0 1024 1024" version="1.1" xmlns="http://www.w3.org/2000/svg" p-id="2150" width="15" height="15"><path d="M912.064777 526.510121v331.659919a82.91498 82.91498 0 0 1-82.914979 82.91498H165.82996a82.91498 82.91498 0 0 1-82.91498-82.91498v-663.319838a82.91498 82.91498 0 0 1 82.91498-82.914979h331.659919v-82.91498H165.82996a165.82996 165.82996 0 0 0-165.82996 165.829959v663.319838a165.82996 165.82996 0 0 0 165.82996 165.82996h663.319838a165.82996 165.82996 0 0 0 165.829959-165.82996v-331.659919z" p-id="2151" fill="#409eff"></path><path d="M511.83417 453.544939l453.793684-453.793684 58.620891 58.620891L570.455061 512.16583z" p-id="2152" fill="#409eff"></path></svg>