<svg t="1642533277699" class="icon" viewBox="0 0 1024 1024" version="1.1" xmlns="http://www.w3.org/2000/svg" p-id="1965" width="20" height="20"><path d="M184.576 511.952c0 38.288 30.992 69.296 69.248 69.296 38.288 0 69.248-31.008 69.248-69.296 0-38.192-30.976-69.2-69.248-69.2C215.568 442.752 184.576 473.76 184.576 511.952zM446.928 511.952c0 38.288 31.024 69.296 69.248 69.296 38.272 0 69.28-31.008 69.28-69.296 0-38.192-31.008-69.2-69.28-69.2C477.952 442.752 446.928 473.76 446.928 511.952zM700.88 511.952c0 38.288 31.008 69.296 69.264 69.296 38.272 0 69.28-31.008 69.28-69.296 0-38.192-31.008-69.2-69.28-69.2C731.888 442.752 700.88 473.76 700.88 511.952z" p-id="1966" fill="#515151"></path></svg>